<svg xmlns="http://www.w3.org/2000/svg" xmlns:xlink="http://www.w3.org/1999/xlink" version="1.1" x="0px" y="0px" viewBox="0 0 100 125" enable-background="new 0 0 100 100" xml:space="preserve"><path fill-rule="evenodd" clip-rule="evenodd" d="M26.3701172,45.8740234l5.9023438,0.0844727l0.3759766,0.4243164h11.8466797  l0.0566406-0.6416016l1.9248047-1.652832h1.7080078l0.6953125-0.3208008h3.9472656L52.9375,42.4291992l0.5878906-0.2124023  h1.1191406v-0.6967773l3.8994141-0.0229492l0.1074219,0.7504883h1.3320313l0.5341797,1.3320313l6.5673828,1.3076172  l0.5878906,1.8164063l-7.8994141,1.1196289h-3.203125l0.0224609,0.5087891l14.8994141,0.0551758l0.8007813,1.4404297  l-0.2255859,0.5444336c0.0742188,0.0307617,0.1455078,0.0727539,0.2128906,0.1152344l0.2421875-0.394043l1.1738281,1.6040039  L73.4248047,53.75l-5.3349609,4.6445313l-26.6445313,0.1083984l-1.3369141-0.5322266l-5.1767578-3.7910156l-0.9638672-1.5488281  l0.0537109-1.1503906l1.3085938-1.362793l0.5322266-0.265625l0.6982422-0.0244141l0.4521484-0.4536133h5.0439453  l0.4785156,0.3447266h0.5625l1.8710938-1.4111328l1.1191406,0.0795898l-0.0302734-0.6660156l-1.2216797-0.0307617  l-0.1328125-0.2670898l-12.0976563,0.0546875l-0.265625,0.4780273l-6.0361328-0.0537109L26.3701172,45.8740234z   M69.0351563,52.6601563l-1.1376953,1.1328125c0.9384766,0.2236328,1.6396484,1.0722656,1.6396484,2.0771484  c0,0.0664063-0.0058594,0.1259766-0.0058594,0.1875l1.8408203-1.6416016  c-0.0712891,0.0068359-0.1503906,0.0136719-0.2353516,0.0136719C70.0839844,54.4296875,69.2041016,53.6660156,69.0351563,52.6601563  L69.0351563,52.6601563z M65.2753906,55.6464844h-1.4882813c0.0302734,0.1376953,0.0410156,0.2832031,0.0410156,0.4296875  c0,0.6660156-0.3017578,1.2587891-0.7802734,1.6523438h3.2978516c-0.6464844-0.3632813-1.0839844-1.0595703-1.0839844-1.8583984  C65.2617188,55.796875,65.2695313,55.7177734,65.2753906,55.6464844L65.2753906,55.6464844z M59.6025391,55.6464844h-1.828125  c0.0478516,0.1816406,0.0712891,0.3671875,0.0712891,0.5625c0,0.5927734-0.2402344,1.1328125-0.6337891,1.5195313h3.1289063  c-0.4775391-0.3935547-0.7792969-0.9863281-0.7792969-1.6523438C59.5615234,55.9296875,59.5712891,55.7841797,59.6025391,55.6464844  L59.6025391,55.6464844z M53.6503906,55.6464844h-1.3623047c0.0380859,0.1572266,0.0556641,0.3203125,0.0556641,0.4892578  c0,0.6367188-0.2734375,1.2060547-0.7080078,1.5927734h2.5722656c-0.3867188-0.3867188-0.6367188-0.9267578-0.6367188-1.5195313  C53.5712891,56.0136719,53.6015625,55.828125,53.6503906,55.6464844L53.6503906,55.6464844z M48.1279297,55.6464844h-0.9296875  c0.0585938,0.1933594,0.0888672,0.3984375,0.0888672,0.6113281c0,0.5683594-0.2226563,1.0878906-0.5849609,1.4707031h2.0810547  c-0.4345703-0.3867188-0.7138672-0.9560547-0.7138672-1.5927734C48.0693359,55.9667969,48.0927734,55.8037109,48.1279297,55.6464844  L48.1279297,55.6464844z M43.1230469,55.5976563l-0.7568359-0.5566406c0.0048828,0.0664063,0.0126953,0.1328125,0.0126953,0.2050781  c0,1.1015625-0.84375,2.0097656-1.9150391,2.125l0.4863281,0.3574219h2.6503906  c-0.3632813-0.3828125-0.5800781-0.9023438-0.5800781-1.4707031C43.0205078,56.0273438,43.0566406,55.8037109,43.1230469,55.5976563  L43.1230469,55.5976563z M39.7988281,53.1582031l-1.3261719-0.9765625c0.0078125,0.0429688,0.0078125,0.0859375,0.0078125,0.1289063  c0,1.1132813-0.8623047,2.0273438-1.9511719,2.1240234l1.6103516,1.1982422  c-0.0253906-0.1259766-0.0351563-0.2539063-0.0351563-0.3867188C38.1044922,54.2167969,38.8300781,53.3574219,39.7988281,53.1582031  L39.7988281,53.1582031z"/><text x="0" y="115" fill="#000000" font-size="5px" font-weight="bold" font-family="'Helvetica Neue', Helvetica, Arial-Unicode, Arial, Sans-serif">Created by Stone</text><text x="0" y="120" fill="#000000" font-size="5px" font-weight="bold" font-family="'Helvetica Neue', Helvetica, Arial-Unicode, Arial, Sans-serif">from the Noun Project</text></svg>